<mxfile host="app.diagrams.net" modified="2023-12-14T21:46:05.728Z" agent="Mozilla/5.0 (Windows NT 10.0; Win64; x64) AppleWebKit/537.36 (KHTML, like Gecko) Chrome/119.0.0.0 Safari/537.36" version="22.1.9" etag="6HNh3WQQBwdx_awdZTQU" type="github">
  <diagram name="Page-1" id="T9zdmiond6JhiQj3uHd5">
    <mxGraphModel>
      <root>
        <mxCell id="0" />
        <mxCell id="1" parent="0" />
      </root>
    </mxGraphModel>
  </diagram>
</mxfile>
